<svg xmlns="http://www.w3.org/2000/svg" width="73" height="74" viewBox="0 0 73 74">
  <g transform="translate(14)">
    <path d="M22.5,36 C22.224,36 22,36.224 22,36.5 C22,36.776 22.224,37 22.5,37 C22.776,37 23,36.776 23,36.5 C23,36.224 22.776,36 22.5,36 Z"/>
    <path d="M34.3421053,39.671875 L32.3684211,39.671875 L32.3684211,37.4804688 C32.3684211,36.3819766 31.4830263,35.4882812 30.3947368,35.4882812 L29.7368421,35.4882812 L29.7368421,34.8242188 C29.7368421,33.9406836 29.1638158,33.1900273 28.3734211,32.9299805 C28.3185526,32.3126016 27.2081579,19.8152773 27.1551974,19.2194805 C27.8851316,18.9365898 28.4210526,18.2198008 28.4210526,17.359375 C28.4210526,16.4937031 27.8709868,15.7555313 27.1052632,15.4814062 L27.1052632,12.3125 L27.7631579,12.3125 C28.1265132,12.3125 28.4210526,12.0151328 28.4210526,11.6484375 C28.4210526,11.2817422 28.1265132,10.984375 27.7631579,10.984375 L27.0583553,10.984375 C26.7436184,8.751 24.8416447,7 22.5,7 C20.1578289,7 18.2563158,8.75126563 17.9416447,10.984375 L17.2368421,10.984375 C16.8734868,10.984375 16.5789474,11.2817422 16.5789474,11.6484375 C16.5789474,12.0151328 16.8734868,12.3125 17.2368421,12.3125 L17.8947368,12.3125 L17.8947368,15.4802773 C17.1411842,15.748625 16.5789474,16.4783633 16.5789474,17.359375 C16.5789474,18.2061211 17.1053289,18.9307461 17.8449342,19.2186172 C17.8191447,19.5085469 16.6524342,32.6393203 16.6266447,32.9299805 C15.8361842,33.1900273 15.2631579,33.9406836 15.2631579,34.8242188 L15.2631579,35.4882812 L14.6052632,35.4882812 C13.5169737,35.4882812 12.6315789,36.3819766 12.6315789,37.4804688 L12.6315789,39.671875 L10.6578947,39.671875 C10.2945395,39.671875 10,39.9692422 10,40.3359375 C10,40.7026328 10.2945395,41 10.6578947,41 L34.3421053,41 C34.7054605,41 35,40.7026328 35,40.3359375 C35,39.9692422 34.7054605,39.671875 34.3421053,39.671875 Z M22.5,8.328125 C24.1085526,8.328125 25.4236184,9.48432422 25.7238158,10.984375 L19.27625,10.984375 C19.5763158,9.48439062 20.8916447,8.328125 22.5,8.328125 Z M25.7894737,12.3125 L25.7894737,15.3671875 L23.1578947,15.3671875 L23.1578947,12.3125 L25.7894737,12.3125 Z M19.2105263,12.3125 L21.8421053,12.3125 L21.8421053,15.3671875 L19.2105263,15.3671875 L19.2105263,12.3125 Z M18.5526316,16.6953125 L26.4473684,16.6953125 C26.8101316,16.6953125 27.1052632,16.9932109 27.1052632,17.359375 C27.1052632,17.7260039 26.8105921,18.0234375 26.4473684,18.0234375 L18.5526316,18.0234375 C18.1898684,18.0234375 17.8947368,17.7255391 17.8947368,17.359375 C17.8947368,16.9927461 18.1894079,16.6953125 18.5526316,16.6953125 Z M25.8783553,19.7171953 L26.2038816,23.3808281 L18.4484211,27.2949453 L18.8044737,23.2875937 L25.8783553,19.7171953 Z M18.9426316,21.7328906 L19.1542105,19.3515625 L23.6606579,19.3515625 L18.9426316,21.7328906 Z M26.3301316,24.8019219 L26.6563158,28.473125 L18.3911184,32.8320312 L17.9563816,32.8320312 L18.3102632,28.8494492 L26.3301316,24.8019219 Z M26.7835526,29.9045781 L27.0436184,32.8320312 L21.2325658,32.8320312 L26.7835526,29.9045781 Z M31.0526316,39.671875 L13.9473684,39.671875 L13.9473684,37.4804688 C13.9473684,37.1143047 14.2425,36.8164062 14.6052632,36.8164062 L19.8407895,36.8164062 C20.2041447,36.8164062 20.4986842,36.5190391 20.4986842,36.1523438 C20.4986842,35.7856484 20.2041447,35.4882812 19.8407895,35.4882812 L16.5789474,35.4882812 L16.5789474,34.8242188 C16.5789474,34.4580547 16.8740789,34.1601562 17.2368421,34.1601562 L18.55125,34.1601562 C18.5519079,34.1601562 18.5525,34.1602891 18.5531579,34.1602891 C18.5538816,34.1602891 18.5546053,34.1601562 18.5553289,34.1601562 L27.7610526,34.1601562 C27.7615132,34.1601562 27.7619737,34.1602227 27.7624342,34.1602227 C27.7627632,34.1602227 27.7631579,34.1601562 27.7634868,34.1601562 C28.1261184,34.1603555 28.4210526,34.4581875 28.4210526,34.8242188 L28.4210526,35.4882812 L25.1592105,35.4882812 C24.7958553,35.4882812 24.5013158,35.7856484 24.5013158,36.1523438 C24.5013158,36.5190391 24.7958553,36.8164062 25.1592105,36.8164062 L30.3947368,36.8164062 C30.7575,36.8164062 31.0526316,37.1143047 31.0526316,37.4804688 L31.0526316,39.671875 Z"/>
    <path d="M35.5802951 20.8044724L30.9398213 19.0473791C30.5930091 18.9162184 30.195429 19.0667022 30.0518923 19.3836997 29.9082878 19.7006972 30.0729607 20.0641695 30.4197049 20.1954544L35.0601787 21.9525477C35.4084181 22.0842055 35.8049788 21.9322306 35.9481077 21.6162272 36.0917122 21.2991675 35.9270393 20.9357574 35.5802951 20.8044724zM35.9481077 11.3837136C35.8045034 11.0665943 35.4069239 10.916236 35.0601801 11.0473957L30.4197135 12.8044749C30.0729019 12.9357588 29.9082972 13.2992282 30.0519015 13.6162232 30.195302 13.932659 30.5922019 14.0840735 30.9398291 13.9525411L35.5802957 12.1954618C35.9270394 12.0641779 36.0917121 11.7007086 35.9481077 11.3837136zM33.3333333 16L30.6666667 16C30.2984667 16 30 16.2239 30 16.5 30 16.7761 30.2984667 17 30.6666667 17L33.3333333 17C33.7015333 17 34 16.7761 34 16.5 34 16.2239 33.7015333 16 33.3333333 16zM15.5802951 12.8044758L10.9398213 11.0473874C10.5929411 10.9162271 10.1954969 11.0666483 10.0518923 11.3837071 9.90828776 11.7007658 10.0729607 12.064175 10.4197049 12.1954595L15.0601787 13.9525479C15.4083502 14.0842052 15.8049788 13.9322308 15.9481077 13.6162282 16.0917122 13.2991695 15.9270393 12.9357604 15.5802951 12.8044758zM15.9480985 19.3836773C15.8044941 19.0666768 15.4068466 18.9162538 15.0601709 19.0473535L10.4197043 20.8044633C10.0729606 20.9357495 9.9082879 21.2992252 10.0518923 21.6162257 10.1952927 21.9327913 10.5923286 22.084022 10.9398199 21.9525494L15.5802865 20.1954396C15.9270981 20.0641535 16.0917028 19.7006778 15.9480985 19.3836773zM14.3333333 16L11.6666667 16C11.2984667 16 11 16.2239 11 16.5 11 16.7761 11.2984667 17 11.6666667 17L14.3333333 17C14.7015333 17 15 16.7761 15 16.5 15 16.2239 14.7015333 16 14.3333333 16z"/>
    <path d="M22.5,0 C34.9264069,0 45,10.0735931 45,22.5 C45,34.9264069 34.9264069,45 22.5,45 C10.0735931,45 0,34.9264069 0,22.5 C0,10.0735931 10.0735931,0 22.5,0 Z M22.5,1.5 C10.9020203,1.5 1.5,10.9020203 1.5,22.5 C1.5,34.0979797 10.9020203,43.5 22.5,43.5 C34.0979797,43.5 43.5,34.0979797 43.5,22.5 C43.5,10.9020203 34.0979797,1.5 22.5,1.5 Z"/>
  </g>
  <path d="M9.20507812,58 L9.20507812,56.9306641 L6.98828125,56.9306641 L6.98828125,50.4609375 L5.85058594,50.4609375 L5.85058594,58 L9.20507812,58 Z M11.421875,58 L11.421875,50.4609375 L10.2841797,50.4609375 L10.2841797,58 L11.421875,58 Z M16.6953125,58.1416016 C17.7760417,58.1416016 18.6663411,57.7477214 19.3662109,56.9599609 C19.6754557,56.6083984 19.8951823,56.2307943 20.0253906,55.8271484 C20.1588542,55.3909505 20.2255859,54.8896484 20.2255859,54.3232422 L20.2255859,54.3232422 L20.2255859,54.0742188 L17.1103516,54.0742188 L17.1103516,55.1435547 L18.9902344,55.1435547 C18.938151,55.6741536 18.6891276,56.1298828 18.2431641,56.5107422 C17.7972005,56.8883464 17.2942708,57.0771484 16.734375,57.0771484 C16.0768229,57.0771484 15.4664714,56.8248698 14.9033203,56.3203125 C14.3011068,55.7766927 14,55.0849609 14,54.2451172 C14,53.4313151 14.2701823,52.7542318 14.8105469,52.2138672 C15.3509115,51.663737 16.0198568,51.3886719 16.8173828,51.3886719 C17.7060547,51.3886719 18.4596354,51.8004557 19.078125,52.6240234 L19.078125,52.6240234 L19.8886719,51.8476562 C19.4166667,51.3072917 18.9365234,50.9166667 18.4482422,50.6757812 C17.9371745,50.4348958 17.3870443,50.3144531 16.7978516,50.3144531 C15.7008464,50.3144531 14.7698568,50.6969401 14.0048828,51.4619141 C13.2399089,52.2236328 12.8574219,53.1513672 12.8574219,54.2451172 C12.8574219,55.3160807 13.2333984,56.2340495 13.9853516,56.9990234 C14.7373047,57.7607422 15.640625,58.1416016 16.6953125,58.1416016 Z M22.7939453,58 L22.7939453,54.4794922 L26.0458984,54.4794922 L26.0458984,58 L27.1835938,58 L27.1835938,50.4609375 L26.0458984,50.4609375 L26.0458984,53.4101562 L22.7939453,53.4101562 L22.7939453,50.4609375 L21.65625,50.4609375 L21.65625,58 L22.7939453,58 Z M31.0703125,58 L31.0703125,51.5302734 L32.7988281,51.5302734 L32.7988281,50.4609375 L28.1992188,50.4609375 L28.1992188,51.5302734 L29.9326172,51.5302734 L29.9326172,58 L31.0703125,58 Z M34.9521484,58 L34.9521484,54.4794922 L38.2041016,54.4794922 L38.2041016,58 L39.3417969,58 L39.3417969,50.4609375 L38.2041016,50.4609375 L38.2041016,53.4101562 L34.9521484,53.4101562 L34.9521484,50.4609375 L33.8144531,50.4609375 L33.8144531,58 L34.9521484,58 Z M44.6738281,58.1367188 C45.7740885,58.1367188 46.7132161,57.757487 47.4912109,56.9990234 C48.2659505,56.2438151 48.6533203,55.3242188 48.6533203,54.2402344 C48.6533203,53.1627604 48.2675781,52.2399089 47.4960938,51.4716797 C46.7278646,50.7034505 45.8066406,50.3193359 44.7324219,50.3193359 C43.6451823,50.3193359 42.7141927,50.7001953 41.9394531,51.4619141 C41.1614583,52.2236328 40.7724609,53.1350911 40.7724609,54.1962891 C40.7724609,55.4039714 41.1988932,56.3805339 42.0517578,57.1259766 C42.8264974,57.7998047 43.7005208,58.1367188 44.6738281,58.1367188 Z M44.6884766,57.0722656 C43.9593099,57.0722656 43.3164062,56.8037109 42.7597656,56.2666016 C42.1998698,55.7294922 41.9199219,55.0442708 41.9199219,54.2109375 C41.9199219,53.4166667 42.1901042,52.749349 42.7304688,52.2089844 C43.2708333,51.6621094 43.9332682,51.3886719 44.7177734,51.3886719 C45.5055339,51.3886719 46.1663411,51.6621094 46.7001953,52.2089844 C47.2373047,52.7526042 47.5058594,53.4264323 47.5058594,54.2304688 C47.5058594,55.0247396 47.2340495,55.6985677 46.6904297,56.2519531 C46.1468099,56.7988281 45.4794922,57.0722656 44.6884766,57.0722656 Z M52.8720703,58.1367188 C53.6826172,58.1367188 54.3662109,57.8502604 54.9228516,57.2773438 C55.4176432,56.7630208 55.6650391,56.108724 55.6650391,55.3144531 L55.6650391,55.3144531 L55.6650391,50.4609375 L54.5273438,50.4609375 L54.5273438,55.0019531 C54.5273438,55.6595052 54.4215495,56.133138 54.2099609,56.4228516 C53.8942057,56.8557943 53.4482422,57.0722656 52.8720703,57.0722656 C52.2991536,57.0722656 51.8548177,56.8557943 51.5390625,56.4228516 C51.327474,56.1233724 51.2216797,55.6497396 51.2216797,55.0019531 L51.2216797,55.0019531 L51.2216797,50.4609375 L50.0839844,50.4609375 L50.0839844,55.3144531 C50.0839844,56.108724 50.3313802,56.7630208 50.8261719,57.2773438 C51.3795573,57.8502604 52.0615234,58.1367188 52.8720703,58.1367188 Z M59.5029297,58.1367188 C60.1930339,58.1367188 60.7708333,57.9088542 61.2363281,57.453125 C61.6985677,57.000651 61.9296875,56.4277344 61.9296875,55.734375 C61.9296875,55.2167969 61.7880859,54.7797852 61.5048828,54.4233398 C61.2216797,54.0668945 60.7740885,53.764974 60.1621094,53.5175781 L60.1621094,53.5175781 L59.4101562,53.2099609 C58.8632812,52.9853516 58.5898438,52.6891276 58.5898438,52.3212891 C58.5898438,52.054362 58.6940104,51.8330078 58.9023438,51.6572266 C59.1106771,51.4781901 59.3727214,51.3886719 59.6884766,51.3886719 C59.945638,51.3886719 60.155599,51.4407552 60.3183594,51.5449219 C60.4746094,51.6360677 60.6389974,51.8313802 60.8115234,52.1308594 L60.8115234,52.1308594 L61.734375,51.5839844 C61.2460938,50.7376302 60.5673828,50.3144531 59.6982422,50.3144531 C59.0537109,50.3144531 58.514974,50.5065104 58.0820312,50.890625 C57.6490885,51.2714844 57.4326172,51.7451172 57.4326172,52.3115234 C57.4326172,53.1513672 57.9485677,53.789388 58.9804688,54.2255859 L58.9804688,54.2255859 L59.7080078,54.5283203 C59.8968099,54.6097005 60.0595703,54.6951497 60.1962891,54.784668 C60.3330078,54.8741862 60.4444987,54.9702148 60.5307617,55.0727539 C60.6170247,55.175293 60.6805013,55.2875977 60.7211914,55.409668 C60.7618815,55.5317383 60.7822266,55.6660156 60.7822266,55.8125 C60.7822266,56.1770833 60.6650391,56.4781901 60.4306641,56.7158203 C60.1962891,56.9534505 59.9016927,57.0722656 59.546875,57.0722656 C59.0976562,57.0722656 58.7558594,56.9095052 58.5214844,56.5839844 C58.391276,56.4147135 58.3001302,56.108724 58.2480469,55.6660156 L58.2480469,55.6660156 L57.0957031,55.9199219 C57.1998698,56.6230469 57.4619141,57.1682943 57.8818359,57.5556641 C58.3082682,57.9430339 58.8486328,58.1367188 59.5029297,58.1367188 Z M67.4619141,58 L67.4619141,56.9306641 L64.4394531,56.9306641 L64.4394531,54.4111328 L67.3740234,54.4111328 L67.3740234,53.3417969 L64.4394531,53.3417969 L64.4394531,51.5302734 L67.4619141,51.5302734 L67.4619141,50.4609375 L63.3017578,50.4609375 L63.3017578,58 L67.4619141,58 Z M2.12988281,71 L2.12988281,67.9384766 L2.65722656,67.9384766 C3.44173177,67.9384766 4.06510417,67.7366536 4.52734375,67.3330078 C4.98958333,66.929362 5.22070312,66.382487 5.22070312,65.6923828 C5.22070312,65.0478516 5.00423177,64.5139974 4.57128906,64.0908203 C4.32389323,63.8466797 4.0374349,63.6806641 3.71191406,63.5927734 C3.38964844,63.5048828 2.91276042,63.4609375 2.28125,63.4609375 L2.28125,63.4609375 L0.9921875,63.4609375 L0.9921875,71 L2.12988281,71 Z M2.5546875,66.8837891 L2.12988281,66.8837891 L2.12988281,64.5107422 L2.50585938,64.5107422 C3.58333333,64.5107422 4.12207031,64.8997396 4.12207031,65.6777344 C4.12207031,66.4817708 3.59960938,66.8837891 2.5546875,66.8837891 L2.5546875,66.8837891 Z M7.53027344,71 L7.53027344,67.9140625 L7.73535156,67.9140625 L9.88867188,71 L11.2802734,71 L8.94628906,67.7871094 C9.44759115,67.6796875 9.85123698,67.4339193 10.1572266,67.0498047 C10.4632161,66.6656901 10.6162109,66.2067057 10.6162109,65.6728516 C10.6162109,64.9892578 10.3720703,64.4391276 9.88378906,64.0224609 C9.44108073,63.648112 8.72167969,63.4609375 7.72558594,63.4609375 L7.72558594,63.4609375 L6.39257812,63.4609375 L6.39257812,71 L7.53027344,71 Z M7.89160156,66.9228516 L7.53027344,66.9228516 L7.53027344,64.5302734 L7.93554688,64.5302734 C8.98372396,64.5302734 9.5078125,64.9160156 9.5078125,65.6875 C9.5078125,66.5110677 8.96907552,66.9228516 7.89160156,66.9228516 L7.89160156,66.9228516 Z M15.7675781,71.1367188 C16.8678385,71.1367188 17.8069661,70.757487 18.5849609,69.9990234 C19.3597005,69.2438151 19.7470703,68.3242188 19.7470703,67.2402344 C19.7470703,66.1627604 19.3613281,65.2399089 18.5898438,64.4716797 C17.8216146,63.7034505 16.9003906,63.3193359 15.8261719,63.3193359 C14.7389323,63.3193359 13.8079427,63.7001953 13.0332031,64.4619141 C12.2552083,65.2236328 11.8662109,66.1350911 11.8662109,67.1962891 C11.8662109,68.4039714 12.2926432,69.3805339 13.1455078,70.1259766 C13.9202474,70.7998047 14.7942708,71.1367188 15.7675781,71.1367188 Z M15.7822266,70.0722656 C15.0530599,70.0722656 14.4101562,69.8037109 13.8535156,69.2666016 C13.2936198,68.7294922 13.0136719,68.0442708 13.0136719,67.2109375 C13.0136719,66.4166667 13.2838542,65.749349 13.8242188,65.2089844 C14.3645833,64.6621094 15.0270182,64.3886719 15.8115234,64.3886719 C16.5992839,64.3886719 17.2600911,64.6621094 17.7939453,65.2089844 C18.3310547,65.7526042 18.5996094,66.4264323 18.5996094,67.2304688 C18.5996094,68.0247396 18.3277995,68.6985677 17.7841797,69.2519531 C17.2405599,69.7988281 16.5732422,70.0722656 15.7822266,70.0722656 Z M22.7402344,71 C23.5052083,71 24.0960286,70.930013 24.5126953,70.7900391 C24.9586589,70.6500651 25.3850911,70.4010417 25.7919922,70.0429688 C26.6025391,69.3268229 27.0078125,68.3893229 27.0078125,67.2304688 C27.0078125,66.0748698 26.6188151,65.1422526 25.8408203,64.4326172 C25.4567057,64.0810547 25.0286458,63.8320312 24.5566406,63.6855469 C24.1171875,63.5358073 23.5182292,63.4609375 22.7597656,63.4609375 L22.7597656,63.4609375 L21.1777344,63.4609375 L21.1777344,71 L22.7402344,71 Z M22.828125,69.9306641 L22.3154297,69.9306641 L22.3154297,64.5302734 L22.828125,64.5302734 C23.7981771,64.5302734 24.5322266,64.7597656 25.0302734,65.21875 C25.5836589,65.7330729 25.8603516,66.4036458 25.8603516,67.2304688 C25.8603516,68.0507812 25.5804036,68.7164714 25.0205078,69.2275391 C24.7470703,69.4749349 24.4410807,69.655599 24.1025391,69.7695312 C23.7639974,69.8769531 23.3391927,69.9306641 22.828125,69.9306641 L22.828125,69.9306641 Z M31.2265625,71.1367188 C32.0371094,71.1367188 32.7207031,70.8502604 33.2773438,70.2773438 C33.7721354,69.7630208 34.0195312,69.108724 34.0195312,68.3144531 L34.0195312,68.3144531 L34.0195312,63.4609375 L32.8818359,63.4609375 L32.8818359,68.0019531 C32.8818359,68.6595052 32.7760417,69.133138 32.5644531,69.4228516 C32.2486979,69.8557943 31.8027344,70.0722656 31.2265625,70.0722656 C30.6536458,70.0722656 30.2093099,69.8557943 29.8935547,69.4228516 C29.6819661,69.1233724 29.5761719,68.6497396 29.5761719,68.0019531 L29.5761719,68.0019531 L29.5761719,63.4609375 L28.4384766,63.4609375 L28.4384766,68.3144531 C28.4384766,69.108724 28.6858724,69.7630208 29.1806641,70.2773438 C29.7340495,70.8502604 30.4160156,71.1367188 31.2265625,71.1367188 Z M39.3466797,71.1367188 C40.0628255,71.1367188 40.7464193,70.9527995 41.3974609,70.5849609 L41.3974609,70.5849609 L41.3974609,69.2128906 C41.2119141,69.3691406 41.035319,69.5026042 40.8676758,69.6132812 C40.7000326,69.7239583 40.5380859,69.811849 40.3818359,69.8769531 C40.101888,70.0071615 39.7617188,70.0722656 39.3613281,70.0722656 C38.5865885,70.0722656 37.9322917,69.8004557 37.3984375,69.2568359 C36.8645833,68.7132161 36.5976562,68.0458984 36.5976562,67.2548828 C36.5976562,66.4541016 36.8645833,65.7770182 37.3984375,65.2236328 C37.9290365,64.6669922 38.5817057,64.3886719 39.3564453,64.3886719 C40.0595703,64.3886719 40.7399089,64.663737 41.3974609,65.2138672 L41.3974609,65.2138672 L41.3974609,63.8662109 C40.7659505,63.4983724 40.1116536,63.3144531 39.4345703,63.3144531 C38.1943359,63.3144531 37.1835938,63.7750651 36.4023438,64.6962891 C35.7675781,65.4482422 35.4501953,66.304362 35.4501953,67.2646484 C35.4501953,68.335612 35.8294271,69.2503255 36.5878906,70.0087891 C37.3496094,70.7607422 38.2692057,71.1367188 39.3466797,71.1367188 Z M44.9130859,71 L44.9130859,64.5302734 L46.6416016,64.5302734 L46.6416016,63.4609375 L42.0419922,63.4609375 L42.0419922,64.5302734 L43.7753906,64.5302734 L43.7753906,71 L44.9130859,71 Z M48.7949219,71 L48.7949219,63.4609375 L47.6572266,63.4609375 L47.6572266,71 L48.7949219,71 Z M54.1318359,71.1367188 C55.2320964,71.1367188 56.171224,70.757487 56.9492188,69.9990234 C57.7239583,69.2438151 58.1113281,68.3242188 58.1113281,67.2402344 C58.1113281,66.1627604 57.7255859,65.2399089 56.9541016,64.4716797 C56.1858724,63.7034505 55.2646484,63.3193359 54.1904297,63.3193359 C53.1031901,63.3193359 52.1722005,63.7001953 51.3974609,64.4619141 C50.6194661,65.2236328 50.2304688,66.1350911 50.2304688,67.1962891 C50.2304688,68.4039714 50.656901,69.3805339 51.5097656,70.1259766 C52.2845052,70.7998047 53.1585286,71.1367188 54.1318359,71.1367188 Z M54.1464844,70.0722656 C53.4173177,70.0722656 52.7744141,69.8037109 52.2177734,69.2666016 C51.6578776,68.7294922 51.3779297,68.0442708 51.3779297,67.2109375 C51.3779297,66.4166667 51.648112,65.749349 52.1884766,65.2089844 C52.7288411,64.6621094 53.391276,64.3886719 54.1757812,64.3886719 C54.9635417,64.3886719 55.624349,64.6621094 56.1582031,65.2089844 C56.6953125,65.7526042 56.9638672,66.4264323 56.9638672,67.2304688 C56.9638672,68.0247396 56.6920573,68.6985677 56.1484375,69.2519531 C55.6048177,69.7988281 54.9375,70.0722656 54.1464844,70.0722656 Z M66.1777344,71.4589844 L66.1777344,63.4609375 L65.0400391,63.4609375 L65.0400391,68.7001953 L59.5419922,62.9482422 L59.5419922,71 L60.6796875,71 L60.6796875,65.7216797 L66.1777344,71.4589844 Z M70.015625,71.1367188 C70.7057292,71.1367188 71.2835286,70.9088542 71.7490234,70.453125 C72.211263,70.000651 72.4423828,69.4277344 72.4423828,68.734375 C72.4423828,68.2167969 72.3007812,67.7797852 72.0175781,67.4233398 C71.734375,67.0668945 71.2867839,66.764974 70.6748047,66.5175781 L70.6748047,66.5175781 L69.9228516,66.2099609 C69.3759766,65.9853516 69.1025391,65.6891276 69.1025391,65.3212891 C69.1025391,65.054362 69.2067057,64.8330078 69.4150391,64.6572266 C69.6233724,64.4781901 69.8854167,64.3886719 70.2011719,64.3886719 C70.4583333,64.3886719 70.6682943,64.4407552 70.8310547,64.5449219 C70.9873047,64.6360677 71.1516927,64.8313802 71.3242188,65.1308594 L71.3242188,65.1308594 L72.2470703,64.5839844 C71.7587891,63.7376302 71.0800781,63.3144531 70.2109375,63.3144531 C69.5664062,63.3144531 69.0276693,63.5065104 68.5947266,63.890625 C68.1617839,64.2714844 67.9453125,64.7451172 67.9453125,65.3115234 C67.9453125,66.1513672 68.461263,66.789388 69.4931641,67.2255859 L69.4931641,67.2255859 L70.2207031,67.5283203 C70.4095052,67.6097005 70.5722656,67.6951497 70.7089844,67.784668 C70.8457031,67.8741862 70.957194,67.9702148 71.043457,68.0727539 C71.1297201,68.175293 71.1931966,68.2875977 71.2338867,68.409668 C71.2745768,68.5317383 71.2949219,68.6660156 71.2949219,68.8125 C71.2949219,69.1770833 71.1777344,69.4781901 70.9433594,69.7158203 C70.7089844,69.9534505 70.414388,70.0722656 70.0595703,70.0722656 C69.6103516,70.0722656 69.2685547,69.9095052 69.0341797,69.5839844 C68.9039714,69.4147135 68.8128255,69.108724 68.7607422,68.6660156 L68.7607422,68.6660156 L67.6083984,68.9199219 C67.7125651,69.6230469 67.9746094,70.1682943 68.3945312,70.5556641 C68.8209635,70.9430339 69.3613281,71.1367188 70.015625,71.1367188 Z"/>
</svg>
