<svg xmlns="http://www.w3.org/2000/svg" width="88" height="38" viewBox="0 0 88 38">
  <g transform="translate(0 .957)">
    <g transform="translate(0 .043)">
      <path d="M24.5 11C24.2240234 11 24 11.2234812 24 11.4999023 24 11.7761282 24.2240234 12 24.5 12 24.7765625 12 25 11.7761282 25 11.4999023 25 11.2234812 24.7765625 11 24.5 11zM11.5 24C11.2234375 24 11 24.2240234 11 24.5 11 24.7765625 11.2234375 25 11.5 25 11.7759765 25 12 24.7765625 12 24.5 12 24.2240234 11.7759765 24 11.5 24z"/>
      <path d="M35.1262856,4.32566309 C34.8889737,4.27045675 34.6395764,4.3421426 34.4681845,4.51517748 L31.553148,7.45319922 L30.1556444,7.45319922 L28.6172368,5.85935604 L28.6172368,4.442393 L31.490524,1.52634386 C31.6605426,1.35385834 31.7297586,1.10584171 31.6734519,0.86991013 C31.61742,0.634253119 31.4438307,0.444189451 31.2142094,0.366735795 C30.4923856,0.123388346 29.7370525,0 28.9688101,0 C26.6786401,0 24.5980407,1.06793888 23.2604145,2.92984873 C22.0084841,4.67283141 21.6225776,6.80885046 22.1754814,8.85313347 L16.9960936,14.0323684 L8.36716821,5.3839222 L8.36716821,3.68653286 C8.36716821,3.43961487 8.23752558,3.21054966 8.02575762,3.08365748 L3.05401778,0.100317034 C2.77715386,-0.0658513286 2.42310865,-0.0221806127 2.19513535,0.206060602 L0.206549272,2.19431329 C-0.0214240288,2.4225545 -0.0650959631,2.77658926 0.100802654,3.05344501 L3.08368177,8.02503814 C3.2105777,8.23679985 3.43937495,8.36616401 3.68630022,8.36643865 L5.38319042,8.366988 L14.0129398,17.0154342 L8.85332803,22.1748937 C6.80898468,21.6222809 4.67180393,22.0087254 2.9279458,23.2614427 C1.06707967,24.5982055 0,26.6781942 0,28.9682966 C0,29.7362417 0.123325279,30.4918272 0.366679909,31.213355 C0.4444105,31.4443428 0.636402461,31.6187509 0.87371439,31.6736826 C1.11130104,31.728889 1.36042358,31.6572031 1.53209018,31.4841683 L4.44685205,28.5464212 L5.85204623,28.5464212 L7.45307781,30.1474055 L7.45307781,31.5525582 L4.51524401,34.467234 C4.34220403,34.6388956 4.27051607,34.8880108 4.32572403,35.1255904 C4.38065735,35.3628953 4.55507065,35.5548816 4.78606523,35.63261 C5.50761437,35.8759574 6.26322216,35.999279 7.03118993,35.999279 C9.32135989,35.999279 11.4011353,34.9319562 12.7382122,33.071145 C13.9909665,31.3273383 14.3774224,29.1904953 13.8247932,27.1462122 L17.968688,23.0024397 L18.9179357,24.0335077 L18.4823145,24.4688414 C18.2076479,24.7434999 18.2076479,25.1887212 18.4823145,25.4633797 C18.7569811,25.7377636 19.201941,25.7377636 19.4768822,25.4633797 L19.8713035,25.0689701 L28.7776421,34.7429912 C28.7842341,34.7501322 28.7911008,34.7569987 28.7979675,34.7638652 C30.445967,36.4118161 33.1160009,36.4123654 34.7648244,34.7635905 C36.4089785,33.1186609 36.4089785,30.442114 34.7648244,28.7971844 C34.757683,28.7900432 34.7502671,28.7831768 34.7428511,28.7763103 L25.0534379,19.8872633 L25.4434644,19.4972482 C25.718131,19.2228644 25.718131,18.777643 25.4434644,18.5029845 C25.1687978,18.2283261 24.723838,18.2283261 24.4488967,18.5029845 L24.0162969,18.9358463 L22.9832758,17.9877252 L27.1472213,13.8239027 C27.7391278,13.982106 28.3499863,14.0623062 28.9688101,14.0623062 C32.8460036,14.0623062 36,10.9081283 36,7.03132379 C36,6.26310404 35.8766747,5.50779319 35.6333201,4.7859907 C35.5555894,4.55500294 35.3635975,4.38059479 35.1262856,4.32566309 Z M6.17258215,7.16727976 C6.04074219,7.03516905 5.8619343,6.96787767 5.67516102,6.96787767 L4.08484146,6.96732839 L1.58922083,2.80075921 L2.80132452,1.58869135 L6.96087529,4.08478762 L6.96087529,5.67506026 C6.96087529,5.86127867 7.03476058,6.03980672 7.16632589,6.17164279 L16.0018006,15.0269068 L15.0072329,16.0211705 L6.17258215,7.16727976 Z M24.0580462,20.8826256 L33.7804193,29.8016104 C34.866451,30.8991457 34.863155,32.676186 33.7702567,33.7696015 C32.6748863,34.8649395 30.9016388,34.8682354 29.8018739,33.7792145 L20.8664204,24.0736078 L24.0580462,20.8826256 Z M23.0209052,19.930934 L19.9130528,23.0381454 L18.9638051,22.0070774 L21.9878841,18.9828129 L23.0209052,19.930934 Z M28.9688101,12.6560548 C28.3538316,12.6560548 27.7490158,12.5574524 27.1716667,12.3629942 C26.9186987,12.2781248 26.6390881,12.3434934 26.4501175,12.5321838 C22.9250465,16.0571508 15.3294168,23.6522817 12.532487,26.4494037 C12.3435163,26.6383687 12.277871,26.917971 12.3632923,27.1712062 C12.9477828,28.9067731 12.6681722,30.7579712 11.5958739,32.2507401 C10.5265969,33.7391144 8.86266672,34.5930276 7.03118993,34.5930276 C6.82546461,34.5930276 6.62083802,34.5817666 6.41813412,34.5600686 L8.65144807,32.344124 C8.78438677,32.2122879 8.85937073,32.0326613 8.85937073,31.8450695 L8.85937073,29.8559928 C8.85937073,29.6694997 8.78521071,29.490697 8.65337075,29.358861 L6.64033937,27.345889 C6.5084994,27.2140529 6.32969144,27.1398951 6.14319288,27.1398951 L4.15405744,27.1398951 C3.96646014,27.1398951 3.78682823,27.2148769 3.65471355,27.3478115 L1.43897826,29.5810596 C1.41700493,29.3783617 1.40601827,29.1737411 1.40601827,28.9680219 C1.40601827,27.1363245 2.25968201,25.4727181 3.74837491,24.4034726 C5.2409131,23.3312059 7.0924406,23.051329 8.82833342,23.6360769 C9.08130133,23.7214957 9.36091188,23.6558523 9.54988249,23.4668872 C9.58861053,23.4284351 23.457625,9.55955509 23.467513,9.54966738 C23.6564837,9.36070235 23.7218543,9.08137469 23.6367077,8.82813961 C23.0519425,7.09257265 23.3310038,5.24192378 24.4024781,3.75025363 C25.4725791,2.26050603 27.136784,1.40631812 28.9685354,1.40631812 C29.180578,1.40631812 29.3912473,1.41812846 29.5999939,1.44119977 L27.4130985,3.66071493 C27.2834559,3.79227636 27.2109439,3.96943106 27.2109439,4.15400156 L27.2109439,6.14307831 C27.2109439,6.32545154 27.2815333,6.50040897 27.4081546,6.63142105 L29.3508713,8.64439303 C29.4832606,8.78172227 29.6659139,8.859176 29.8568072,8.859176 L31.8459426,8.859176 C32.0332651,8.859176 32.2128971,8.78446889 32.3450117,8.65125947 L34.5607471,6.41828607 C34.5827204,6.62098399 34.5937071,6.82560461 34.5937071,7.03132379 C34.5937071,10.1327674 32.0703451,12.6560548 28.9688101,12.6560548 L28.9688101,12.6560548 Z"/>
      <path d="M21.8235848 13.2018571L13.2016538 21.8238461C12.9327821 22.0927197 12.9327821 22.5290001 13.2016538 22.7981429 13.4707948 23.0672857 13.9070724 23.0672857 14.1762133 22.7981429L22.7981443 14.176154C23.0672852 13.9072803 23.0672852 13.4709999 22.7981443 13.2018571 22.5290033 12.9327143 22.0927258 12.9327143 21.8235848 13.2018571L21.8235848 13.2018571zM30.7607424 31.7874865C31.0444794 32.0711217 31.5044169 32.0711217 31.7881538 31.7857796 32.0713233 31.5010064 32.0704721 31.0398504 31.7864514 30.7559307L25.2392219 24.2124074C24.9552012 23.9284878 24.4949799 23.9293412 24.2120942 24.2141144 23.928641 24.499172 23.9294922 24.9600436 24.2135129 25.2439633L30.7607424 31.7874865z"/>
    </g>
    <path d="M47.8164062,14.0429688 L47.8164062,1.5625 L52.0644531,1.5625 L52.0644531,0.263671875 L41.9570312,0.263671875 L41.9570312,1.5625 L46.2246094,1.5625 L46.2246094,14.0429688 L47.8164062,14.0429688 Z M58.9785156,14.3066406 C60.5279948,14.3066406 61.7063802,13.6946615 62.5136719,12.4707031 C63.3209635,11.2467448 63.7246094,9.47591146 63.7246094,7.15820312 C63.7246094,4.82747396 63.3193359,3.05175781 62.5087891,1.83105469 C61.6982422,0.610351562 60.5214844,0 58.9785156,0 C57.4355469,0 56.2604167,0.611979167 55.453125,1.8359375 C54.6458333,3.05989583 54.2421875,4.83398438 54.2421875,7.15820312 C54.2421875,9.48242188 54.6474609,11.2548828 55.4580078,12.4755859 C56.2685547,13.6962891 57.4420573,14.3066406 58.9785156,14.3066406 Z M58.9785156,12.9003906 C57.9824219,12.9003906 57.2272135,12.4104818 56.7128906,11.4306641 C56.1985677,10.4508464 55.9414062,9.02669271 55.9414062,7.15820312 C55.9414062,5.30924479 56.2001953,3.88834635 56.7177734,2.89550781 C57.2353516,1.90266927 57.9889323,1.40625 58.9785156,1.40625 C61.0097656,1.40625 62.0253906,3.32356771 62.0253906,7.15820312 C62.0253906,10.9863281 61.0097656,12.9003906 58.9785156,12.9003906 Z M70.9804688,14.3066406 C72.5299479,14.3066406 73.7083333,13.6946615 74.515625,12.4707031 C75.3229167,11.2467448 75.7265625,9.47591146 75.7265625,7.15820312 C75.7265625,4.82747396 75.3212891,3.05175781 74.5107422,1.83105469 C73.7001953,0.610351562 72.5234375,0 70.9804688,0 C69.4375,0 68.2623698,0.611979167 67.4550781,1.8359375 C66.6477865,3.05989583 66.2441406,4.83398438 66.2441406,7.15820312 C66.2441406,9.48242188 66.6494141,11.2548828 67.4599609,12.4755859 C68.2705078,13.6962891 69.4440104,14.3066406 70.9804688,14.3066406 Z M70.9804688,12.9003906 C69.984375,12.9003906 69.2291667,12.4104818 68.7148438,11.4306641 C68.2005208,10.4508464 67.9433594,9.02669271 67.9433594,7.15820312 C67.9433594,5.30924479 68.2021484,3.88834635 68.7197266,2.89550781 C69.2373047,1.90266927 69.9908854,1.40625 70.9804688,1.40625 C73.0117188,1.40625 74.0273438,3.32356771 74.0273438,7.15820312 C74.0273438,10.9863281 73.0117188,12.9003906 70.9804688,12.9003906 Z M87.0058594,14.0429688 L87.0058594,12.6464844 L81.1074219,12.6464844 L81.1074219,0.263671875 L79.5058594,0.263671875 L79.5058594,14.0429688 L87.0058594,14.0429688 Z M46.4394531,36.3066406 C47.6634115,36.3066406 48.726237,35.9371745 49.6279297,35.1982422 C50.5296224,34.4593099 50.9804688,33.4192708 50.9804688,32.078125 C50.9804688,31.5377604 50.8779297,31.0511068 50.6728516,30.6181641 C50.4677734,30.1852214 50.1959635,29.8092448 49.8574219,29.4902344 C49.5188802,29.171224 49.1852214,28.9205729 48.8564453,28.7382812 C48.5276693,28.5559896 47.8554688,28.2304688 46.8398438,27.7617188 C45.4661458,27.1302083 44.7792969,26.3977865 44.7792969,25.5644531 C44.7792969,24.8613281 45.0413411,24.3193359 45.5654297,23.9384766 C46.0895182,23.5576172 46.7682292,23.3671875 47.6015625,23.3671875 C48.3372396,23.3671875 49.1152344,23.5071615 49.9355469,23.7871094 L49.9355469,23.7871094 L50.296875,22.4199219 C49.3919271,22.139974 48.4804688,22 47.5625,22 C46.3059896,22 45.2675781,22.3190104 44.4472656,22.9570312 C43.6269531,23.5950521 43.2167969,24.483724 43.2167969,25.6230469 C43.2167969,26.0527344 43.2949219,26.4498698 43.4511719,26.8144531 C43.6074219,27.1790365 43.828776,27.5078125 44.1152344,27.8007812 C44.4016927,28.09375 44.6897786,28.3232422 44.9794922,28.4892578 C45.2692057,28.6552734 45.9088542,28.9661458 46.8984375,29.421875 C47.8619792,29.8645833 48.5227865,30.2991536 48.8808594,30.7255859 C49.2389323,31.1520182 49.4179688,31.671224 49.4179688,32.2832031 C49.4179688,33.110026 49.1429036,33.7594401 48.5927734,34.2314453 C48.0426432,34.7034505 47.311849,34.9394531 46.4003906,34.9394531 C45.6191406,34.9394531 44.7044271,34.7018229 43.65625,34.2265625 L43.65625,34.2265625 L43.3242188,35.6035156 C44.2161458,36.0722656 45.2545573,36.3066406 46.4394531,36.3066406 Z M56.6445312,36.0429688 L56.6445312,29.2070312 L61.3613281,29.2070312 L61.3613281,36.0429688 L62.9628906,36.0429688 L62.9628906,22.2636719 L61.3613281,22.2636719 L61.3613281,27.8007812 L56.6445312,27.8007812 L56.6445312,22.2636719 L55.0429688,22.2636719 L55.0429688,36.0429688 L56.6445312,36.0429688 Z M74.7011719,36.0429688 L74.7011719,34.6464844 L69.1054688,34.6464844 L69.1054688,29.3242188 L74.4277344,29.3242188 L74.4277344,27.9277344 L69.1054688,27.9277344 L69.1054688,23.6601562 L74.6425781,23.6601562 L74.6425781,22.2636719 L67.5039062,22.2636719 L67.5039062,36.0429688 L74.7011719,36.0429688 Z M81.8300781,36.0429688 C83.5553385,36.0429688 84.9697266,35.4423828 86.0732422,34.2412109 C87.1767578,33.0400391 87.7285156,31.3457031 87.7285156,29.1582031 C87.7285156,27.016276 87.1848958,25.3317057 86.0976562,24.1044922 C85.0104167,22.8772786 83.5651042,22.2636719 81.7617188,22.2636719 L81.7617188,22.2636719 L79.046875,22.2636719 L79.046875,36.0429688 L81.8300781,36.0429688 Z M81.78125,34.6464844 L80.6484375,34.6464844 L80.6484375,23.6601562 L81.78125,23.6601562 C83.0833333,23.6601562 84.116862,24.1500651 84.8818359,25.1298828 C85.6468099,26.1097005 86.0292969,27.452474 86.0292969,29.1582031 C86.0292969,30.8769531 85.6484375,32.2213542 84.8867188,33.1914062 C84.125,34.1614583 83.0898438,34.6464844 81.78125,34.6464844 L81.78125,34.6464844 Z"/>
  </g>
</svg>
