<svg xmlns="http://www.w3.org/2000/svg" width="88" height="30" viewBox="0 0 88 30">
  <g transform="translate(62 5)">
    <path d="M21.0952381,2.68321044 C21.0949405,1.20100787 19.8824405,-0.0003538447 18.3870238,7.81795961e-08 C17.6692857,7.81795961e-08 16.9809524,0.28278803 16.4733333,0.785764583 L13,4.22854322 L9.52666667,0.785764583 C8.46910714,-0.262137653 6.7547619,-0.261901652 5.6975,0.786354585 C5.18982143,1.28974414 4.90464286,1.97237625 4.9047619,2.68415445 C4.90458333,3.32241842 5.135,3.93956032 5.55428571,4.42395182 L3,4.42395182 L3,11.0319722 L4.42857143,11.0319722 L4.42857143,20.0000001 L21.5714286,20.0000001 L21.5714286,11.0319722 L23,11.0319722 L23,4.42395182 L20.4452381,4.42395182 C20.8648214,3.93932432 21.0954167,3.32182842 21.0952381,2.68321044 Z M17.1466667,1.45317464 C17.8322619,0.773846546 18.9435714,0.774023547 19.6289286,1.45352865 C19.9581548,1.77991765 20.1429762,2.22259602 20.1428572,2.68415445 C20.1420833,3.64467741 19.3566667,4.42318482 18.387619,4.42395182 L14.1495238,4.42395182 L17.1466667,1.45317464 Z M6.94047619,1.07604548 C7.1589881,0.987132205 7.39285714,0.941289063 7.62904762,0.941049465 C8.09035714,0.94010906 8.53220238,1.12495663 8.85333333,1.45317464 L11.8504762,4.42395182 L7.61238095,4.42395182 C6.64315476,4.42265381 5.85791667,3.64391041 5.85714286,2.68321044 C5.85065476,1.97768626 6.28041667,1.3401303 6.94047619,1.07604548 Z M3.95238095,10.0879693 L3.95238095,5.36795473 L10.6190476,5.36795473 L10.6190476,10.0879693 L3.95238095,10.0879693 Z M11.0952381,19.055997 L5.38095238,19.055997 L5.38095238,11.0319722 L11.0952381,11.0319722 L11.0952381,19.055997 Z M13.952381,19.055997 L12.047619,19.055997 L12.047619,11.0319722 L13.952381,11.0319722 L13.952381,19.055997 Z M14.4285714,10.0879693 L11.5714286,10.0879693 L11.5714286,5.36795473 L14.4285714,5.36795473 L14.4285714,10.0879693 Z M20.6190476,19.055997 L14.9047619,19.055997 L14.9047619,11.0319722 L20.6190476,11.0319722 L20.6190476,19.055997 Z M22.047619,5.36795473 L22.047619,10.0879693 L15.3809524,10.0879693 L15.3809524,5.36795473 L22.047619,5.36795473 Z"/>
    <rect width="1" height="1" x="24" y="1"/>
    <rect width="1" height="1" x="24" y="3"/>
    <rect width="1" height="1" x="25" y="2"/>
    <rect width="1" height="1" x="23" y="2"/>
    <rect width="1" height="1" x="1" y="1"/>
    <rect width="1" height="1" x="1" y="3"/>
    <rect width="1" height="1" x="2" y="2"/>
    <rect width="1" height="1" y="2"/>
  </g>
  <path d="M8.34,24 C9.14,24 9.89333333,23.7233333 10.6,23.17 C11.3066667,22.6166667 11.66,21.78 11.66,20.66 L11.66,20.66 L11.66,15.66 L6.66,15.66 L6.66,17.34 L8.34,17.34 L8.34,20.66 C8.28666667,21.7266667 7.72666667,22.2866667 6.66,22.34 C6.20666667,22.34 5.81666667,22.1766667 5.49,21.85 C5.16333333,21.5233333 5,21.1266667 5,20.66 L5,20.66 L5,12.34 C5,11.8733333 5.16333333,11.4766667 5.49,11.15 C5.81666667,10.8233333 6.20666667,10.66 6.66,10.66 L6.66,10.66 L8.34,10.66 C9.31333333,10.66 9.86666667,11.22 10,12.34 L10,12.34 L11.66,12.34 C11.54,10.1133333 10.4333333,9 8.34,9 L8.34,9 L5,9 C4.06666667,9 3.27666667,9.33 2.63,9.99 C1.98333333,10.65 1.66,11.4333333 1.66,12.34 L1.66,12.34 L1.66,20.66 C1.66,21.58 1.99,22.3666667 2.65,23.02 C3.31,23.6733333 4.09333333,24 5,24 L5,24 L8.34,24 Z M18.34,10.66 L18.34,9 L15,9 L15,10.66 L18.34,10.66 Z M18.34,24 L18.34,12.34 L15,12.34 L15,24 L18.34,24 Z M26.66,24 L26.66,14 L28.34,14 L28.34,12.34 L26.66,12.34 L26.66,12.18 C26.66,11.7666667 26.81,11.41 27.11,11.11 C27.41,10.81 27.7666667,10.66 28.18,10.66 L28.18,10.66 L30,10.66 L30,9 L26.52,9 C25.6533333,9 24.9066667,9.31333333 24.28,9.94 C23.6533333,10.5666667 23.34,11.3133333 23.34,12.18 L23.34,12.18 L23.34,12.34 L21.66,12.34 L21.66,14 L23.34,14 L23.34,24 L26.66,24 Z M38.34,24 L38.34,22.34 L38.18,22.34 C37.8866667,22.34 37.56,22.1966667 37.2,21.91 C36.84,21.6233333 36.66,21.2066667 36.66,20.66 L36.66,20.66 L36.66,14 L38.34,14 L38.34,12.34 L36.66,12.34 L36.66,9 L33.34,9 L33.34,12.34 L31.66,12.34 L31.66,14 L33.34,14 L33.34,20.66 C33.34,21.58 33.6666667,22.3666667 34.32,23.02 C34.9733333,23.6733333 35.7533333,24 36.66,24 L36.66,24 L38.34,24 Z M46.66,24 L46.66,9 L43.34,9 L43.34,24 L46.66,24 Z M58.34,24 L58.34,22.34 L58.18,22.34 C57.8866667,22.34 57.56,22.1966667 57.2,21.91 C56.84,21.6233333 56.66,21.2066667 56.66,20.66 L56.66,20.66 L56.66,14 L58.34,14 L58.34,12.34 L56.66,12.34 L56.66,9 L53.34,9 L53.34,12.34 L51.66,12.34 L51.66,14 L53.34,14 L53.34,20.66 C53.34,21.58 53.6666667,22.3666667 54.32,23.02 C54.9733333,23.6733333 55.7533333,24 56.66,24 L56.66,24 L58.34,24 Z"/>
</svg>
