<svg xmlns="http://www.w3.org/2000/svg" width="63" height="28" viewBox="0 0 63 28">
  <g transform="translate(.219 .69)">
    <g transform="translate(49.781 4.31)">
      <path d="M4.2288676,12 C4.38179676,12 4.53447247,11.9883532 4.68537455,11.9651204 C4.73380469,11.9577841 4.78359066,11.9488484 4.83294276,11.9385927 C5.10952684,11.8813864 5.37523788,11.7852236 5.62100365,11.6533877 C6.35458741,11.2611578 6.93241377,10.5451118 7.24799606,9.63715204 C7.3541965,9.32975069 7.42928727,9.01368224 7.47227697,8.69311967 C7.57686546,8.70268997 7.68240304,8.7080209 7.78897104,8.7080209 C8.43521242,8.7080209 9.114075,8.53309009 9.78100631,8.19155488 C10.6430954,7.75007733 11.4064531,7.06779385 11.9885367,6.21847442 C13.3041499,4.2995918 13.3401336,2.02135341 12.0743063,0.801508639 C11.8570778,0.591754924 11.6036289,0.417787728 11.3246154,0.286921133 C10.4852229,-0.107339563 9.45186575,-0.094900715 8.4150106,0.321876833 C7.39336783,0.732485728 6.45814548,1.50229808 5.78156069,2.48933332 C5.58154281,2.78088826 5.40756917,3.08739961 5.26141122,3.40574637 C4.6685623,2.99762525 4.00320375,2.76268334 3.321277,2.75463617 C3.10774142,2.75214591 2.89460512,2.77258777 2.68604493,2.81556114 C2.59024352,2.8352783 2.49565721,2.85985374 2.4027042,2.8891788 C1.51208856,3.16773283 0.792307119,3.86189668 0.375986878,4.84385484 C-0.0342863744,5.8110387 -0.11167698,6.97460404 0.157997012,8.1198665 C0.691596289,10.3871638 2.42493977,12 4.2288676,12 L4.2288676,12 Z M11.9073498,1.23689369 C12.3449836,1.74285016 12.5765589,2.44841205 12.5632718,3.24861073 C12.548195,4.16035287 12.2143904,5.13728472 11.6234125,5.99914454 C11.0804309,6.79139758 10.3713334,7.4263119 9.57280551,7.83524536 C8.89261422,8.18355848 8.17936787,8.34209032 7.539065,8.29104027 C8.80037651,7.36371343 9.6497011,6.03158322 9.92288005,4.55212579 C10.1411493,3.37676097 10.7493106,2.29560897 11.6610503,1.46211298 L11.9073498,1.23689369 Z M10.9306391,1.02335168 L11.2643895,0.718295288 C11.2915061,0.73324729 11.3187853,0.748605459 11.3457391,0.764674419 C11.4365612,0.819281997 11.5232507,0.879690366 11.6051902,0.94546926 L11.3579416,1.17139935 C10.3808995,2.06453819 9.72920146,3.22310068 9.49536068,4.48262056 C9.25915129,5.76183948 8.56058533,6.92623065 7.51666674,7.78076828 C7.51080957,7.61647396 7.49763997,7.45110498 7.47715794,7.28466135 C8.37407234,6.4114679 8.97148386,5.30707711 9.19257739,4.11349141 C9.40832922,2.93731014 10.0168319,1.85543936 10.9306391,1.02335168 L10.9306391,1.02335168 Z M6.14663067,2.70868859 C7.3467545,0.957806566 9.34790093,0.0536292785 10.8422392,0.536611958 L10.6275576,0.732841124 C9.64835626,1.62442209 8.99630393,2.78367214 8.76511225,4.04398618 C8.5784882,5.05209528 8.10360488,5.99403896 7.39092735,6.76971845 C7.38135521,6.7245832 7.37145767,6.67942257 7.36082799,6.63426194 C7.07325708,5.41241172 6.43186955,4.36988398 5.61145863,3.67409547 C5.75753867,3.33747662 5.93669874,3.0142864 6.14663067,2.70868859 L6.14663067,2.70868859 Z M3.52988454,3.49510299 L3.53330123,3.17270837 C4.22498993,3.23957352 4.92237311,3.5839519 5.51863871,4.15730662 C6.19804363,4.81075228 6.70184183,5.721479 6.93726763,6.72168927 C7.16325687,7.68217138 7.12708341,8.67296366 6.83560772,9.51154507 C6.61246571,10.1533134 6.24826346,10.6847315 5.78939737,11.0482504 C5.97762071,9.55721331 5.56875676,8.05378786 4.64182539,6.82853643 C3.91627131,5.87123366 3.52746036,4.72603605 3.52946999,3.55224553 C3.52946999,3.53330802 3.52946999,3.51459898 3.52974896,3.49510299 L3.52988454,3.49510299 Z M2.68249267,3.66993226 L2.68691266,3.23330333 C2.71752724,3.22568771 2.74827739,3.21860518 2.77924448,3.21223344 C2.8847678,3.1905322 2.99175969,3.17564666 3.0994637,3.16768206 L3.09604702,3.49063516 C3.09574874,3.51129888 3.09574874,3.53165797 3.09574874,3.55232169 C3.09356472,4.81012829 3.5101957,6.03730007 4.28768338,7.06312294 C5.16426747,8.22176035 5.54408963,9.64633071 5.35192623,11.0546983 L5.31225473,11.348179 C5.18189906,11.4111299 5.04557662,11.4626043 4.90504564,11.5019384 L4.93487384,11.280603 C4.96913538,11.0266976 4.986343,10.7710295 4.98639527,10.5151062 C4.98873068,9.25700697 4.57208414,8.02951559 3.79443351,7.00344186 C3.05647374,6.03034238 2.66712316,4.86324282 2.68235708,3.66993226 L2.68249267,3.66993226 Z M2.25133968,3.38513343 L2.24849244,3.66597214 C2.23219847,4.9446534 2.64942188,6.19524121 3.44018303,7.23795221 C4.16588545,8.19545819 4.55472932,9.34091744 4.55262057,10.5149539 C4.55254007,10.7538284 4.53645547,10.9924632 4.504453,11.2294515 L4.45661942,11.5835017 C3.68442171,11.6520423 2.88131114,11.362801 2.17788097,10.7584761 C1.40627982,10.0955363 0.839435665,9.12743853 0.581747184,8.03248994 C0.103330067,6.00097229 0.831029538,4.03571054 2.25133968,3.38513343 L2.25133968,3.38513343 Z"/>
      <path d="M7.2965651 3C7.37144938 3.00009293 7.44357107 2.9699523 7.49833717 2.91567649 7.62265278 2.7927739 7.75333974 2.67396545 7.88676787 2.56255791 7.97001046 2.49303086 8.01202711 2.38158986 7.99699055 2.27021366 7.981954 2.15883746 7.91214865 2.06444676 7.81386951 2.02259762 7.71559038 1.98074848 7.60376838 1.99779878 7.52052581 2.06732585 7.37428087 2.18936237 7.23099936 2.31970524 7.09453372 2.45445718 7.00532575 2.5426308 6.97598422 2.67984168 7.02057162 2.80032882 7.06515903 2.92081595 7.17458974 3.0000275 7.29641692 3L7.2965651 3zM6.12587391 3.9819268C6.17972429 4.00231664 6.24202948 4.00559593 6.29906276 3.99104219 6.35609604 3.97648845 6.40317786 3.94529581 6.42993544 3.90433645 6.57447589 3.68349351 6.74858847 3.47456866 6.94951093 3.28087646 7.00089754 3.23259581 7.01415768 3.16703912 6.98422497 3.10925404 6.95429227 3.05146897 6.88579198 3.01038457 6.80489643 3.00169821 6.72400087 2.99301185 6.64321021 3.01806578 6.59339261 3.06728747 6.37307426 3.27962277 6.18217999 3.5086794 6.02374507 3.75081533 5.96801337 3.83607407 6.01373248 3.93953368 6.12587391 3.9819268L6.12587391 3.9819268zM2.43530012 9.89768098C2.55046239 10.0203496 2.75299422 10.0347565 2.88766764 9.92985988 3.02234105 9.82496321 3.03815796 9.64048512 2.92299569 9.51781654 2.80353795 9.39052543 2.68845109 9.25717109 2.58114363 9.12144261 2.47758617 8.99049325 2.27709205 8.9608044 2.13332747 9.05513071 1.98956289 9.14945701 1.95696856 9.33207903 2.060526 9.4630284 2.17837975 9.61190604 2.30445399 9.75811732 2.43530012 9.89768098L2.43530012 9.89768098zM3.06024594 10.3849989C3.26960535 10.6094308 3.49696724 10.8062918 3.73871707 10.9724522 3.79380933 11.0105772 3.86102845 11.009036 3.91496158 10.9684113 3.9688947 10.9277865 4.00131255 10.8542768 3.99995923 10.7756733 3.99860591 10.6970698 3.96368791 10.625366 3.90840634 10.5876703 3.6879074 10.4361277 3.48052776 10.256589 3.28956289 10.0519073 3.21576658 9.97403971 3.10546444 9.98502149 3.04249235 10.0765059 2.97952027 10.1679903 2.98744618 10.3057384 3.06024594 10.3850538L3.06024594 10.3849989z"/>
    </g>
    <path d="M3.91540668 16.6228529C5.37140668 16.3628529 7.32140668 15.4528529 8.46540668 14.2048529 9.58340668 12.9828529 9.60940668 11.4488529 9.06340668 10.6428529 8.72540668 10.1488529 8.30940668 9.78485293 7.81540668 9.55085293 9.73940668 8.71885293 11.1174067 7.41885293 11.8714067 6.45685293 12.7554067 5.31285293 13.2494067 3.85685293 12.7814067 2.11485293 12.3134067.346852934 11.0394067-.0691470658 9.71340668.00885293416 7.97140668.112852934 5.63140668 1.38685293 3.81140668 1.54285293 3.49940668 1.56885293 3.42140668 1.69885293 3.55140668 1.98485293 3.73340668 2.40085293 4.27940668 2.97285293 5.31940668 3.02485293 3.36940668 5.93685293 1.39340668 9.73285293.353406677 12.6448529-.244593323 14.3088529.015406677 14.7248529.405406677 15.2968529.743406677 15.7908529 1.21140668 16.2328529 1.73140668 16.4928529 2.30340668 16.7788529 2.92740668 16.8048529 3.91540668 16.6228529zM4.12340668 8.82285293C4.87740668 7.49685293 5.63140668 6.27485293 6.15140668 5.31285293 6.80140668 4.11685293 6.98340668 3.33685293 6.93140668 2.76485293 8.72540668 2.19285293 11.2994067.996852934 11.8194067 2.34885293 12.4694067 4.11685293 9.27140668 7.62685293 4.12340668 8.82285293zM1.67940668 14.1528529C2.06940668 12.8528529 2.71940668 11.4748529 3.42140668 10.1228529 3.78540668 10.3048529 4.30540668 10.3828529 5.03340668 10.3048529 5.39740668 10.2528529 5.76140668 10.2008529 6.12540668 10.1228529 8.49140668 10.2528529 8.49140668 11.4228529 7.52940668 12.6188529 6.41140668 13.9968529 4.17540668 15.0628529 2.51140668 15.2708529 1.67940668 15.3748529 1.39340668 15.0628529 1.67940668 14.1528529zM14.4454067 16.7268529C16.4474067 16.7008529 18.4494067 15.5048529 19.5414067 13.9188529 20.0094067 13.2428529 20.0874067 12.5148529 19.9834067 12.3068529 19.8794067 12.0728529 19.6714067 12.0728529 19.5414067 12.2808529 18.4234067 13.9968529 16.5254067 16.0768529 14.3674067 15.9728529 12.9894067 15.8948529 12.3654067 14.2568529 13.1974067 11.8648529 15.0174067 13.3468529 16.7594067 12.6708529 18.0334067 11.1108529 19.1254067 9.78485293 19.3334067 8.19885293 18.8654067 7.57485293 18.4494067 7.00285293 17.9814067 6.61285293 17.3314067 6.22285293 16.0314067 5.46885293 13.3794067 6.82085293 11.6894067 10.1748529 9.99940668 13.5288529 11.1434067 16.7788529 14.4454067 16.7268529zM13.4314067 11.2928529C13.4834067 11.1628529 13.5614067 11.0068529 13.6394067 10.8508529 14.8614067 8.38085293 17.0194067 6.82085293 17.5654067 7.26285293 17.9294067 7.54885293 17.3574067 8.90085293 16.5254067 9.99285293 15.7714067 10.9808529 14.7054067 12.0988529 13.4314067 11.2928529zM30.3834067 13.9968529C30.7214067 13.2688529 30.7214067 12.6188529 30.6174067 12.3848529 30.5134067 12.1508529 30.3314067 12.1768529 30.2014067 12.4108529 29.2914067 14.2048529 27.8614067 15.9728529 26.7954067 16.0248529 25.9114067 16.0768529 25.9374067 14.9588529 26.5874067 13.5028529 27.2114067 12.1248529 28.5114067 10.1748529 29.0834067 9.00485293 29.7074067 7.70485293 29.4994067 6.58685293 29.1094067 6.11885293 28.9274067 5.88485293 28.7194067 5.93685293 28.4854067 6.27485293 28.1994067 6.69085293 27.8874067 7.23685293 27.5494067 7.86085293 27.6014067 6.84685293 27.0814067 5.98885293 25.9634067 5.98885293 24.6634067 5.98885293 22.6094067 7.15885293 20.5034067 10.2268529 18.3454067 13.3728529 18.8394067 16.6748529 21.2574067 16.6748529 22.5054067 16.6748529 23.6754067 15.7128529 24.5074067 14.6468529 24.5074067 15.8688529 25.2354067 16.7008529 26.6394067 16.7788529 28.0694067 16.8568529 29.7074067 15.4268529 30.3834067 13.9968529zM21.5434067 15.8168529C20.5294067 15.7908529 20.8674067 13.5028529 22.2454067 11.2668529 23.6754067 8.95285293 25.5734067 7.26285293 26.4054067 7.34085293 27.1594067 7.41885293 26.9254067 9.03085293 25.2874067 11.8908529 23.9614067 14.1788529 22.6094067 15.8428529 21.5434067 15.8168529zM36.3634067 16.7788529C37.8714067 16.7788529 39.5094067 15.4528529 40.2114067 13.9968529 40.5754067 13.2428529 40.6274067 12.6448529 40.4454067 12.3588529 40.3154067 12.1508529 40.1334067 12.1508529 40.0034067 12.3848529 39.0154067 14.2048529 37.7414067 15.9208529 36.6754067 15.9728529 35.7394067 16.0248529 35.5834067 14.8028529 36.2594067 13.2948529 36.8574067 11.9428529 38.1314067 10.0188529 38.6774067 8.87485293 39.3274067 7.52285293 38.5214067 6.24885293 37.6634067 6.11885293 36.8054067 5.98885293 35.0374067 7.41885293 33.8674067 8.66685293 34.1534067 7.73085293 34.1794067 6.84685293 33.7894067 6.19685293 33.6334067 5.93685293 33.4254067 5.91085293 33.2434067 6.19685293 31.6054067 8.61485293 29.6034067 12.2288529 29.0834067 13.8668529 28.6674067 15.1668529 28.8234067 16.0248529 29.3434067 16.5448529 29.5774067 16.7788529 29.7334067 16.6748529 29.8374067 16.4408529 30.9554067 13.9968529 32.0994067 11.5008529 33.6334067 9.83685293 35.2974067 8.01685293 36.8054067 7.28885293 37.0654067 7.39285293 37.5334067 7.60085293 35.2454067 10.3568529 34.3874067 12.9048529 33.6334067 15.1668529 34.1534067 16.7788529 36.3634067 16.7788529zM43.6174067 16.7268529C45.4634067 16.6488529 47.2314067 15.6608529 48.2194067 13.8668529 48.6614067 13.0608529 48.6874067 12.3848529 48.5834067 12.1508529 48.4794067 11.9428529 48.2194067 11.8648529 48.0894067 12.1508529 47.4394067 13.5548529 46.3474067 15.1148529 44.6054067 15.7648529 45.5414067 15.1408529 45.7234067 14.0488529 45.7754067 13.0348529 45.8534067 11.2408529 45.3594067 9.21285293 45.5414067 6.82085293 45.6454067 6.63885293 45.7234067 6.48285293 45.8274067 6.32685293 46.1654067 5.72885293 46.2954067 5.44285293 46.0354067 5.18285293 45.8014067 4.94885293 45.2034067 5.05285293 44.6314067 5.57285293 44.0854067 6.06685293 43.8254067 6.56085293 43.6954067 7.57485293 42.9414067 8.90085293 41.7714067 10.5908529 40.7054067 12.0468529L40.6534067 11.4228529 40.6534067 11.4228529C40.6274067 11.0068529 40.4194067 10.9028529 40.1074067 11.1628529 39.2234067 11.8908529 39.1454067 13.6068529 39.7694067 14.7768529 40.6534067 16.3888529 42.1094067 16.7788529 43.6174067 16.7268529zM40.9394067 13.4508529C41.9274067 12.0468529 42.8894067 10.6168529 43.6434067 9.23885293 43.7474067 11.3188529 44.1374067 15.4008529 42.9414067 15.7648529 42.0834067 16.0248529 41.3294067 14.9588529 40.9394067 13.4508529zM2.24740668 26.3768529C2.90740668 26.3768529 3.35140668 26.2508529 3.98140668 25.8728529 3.95260668 25.6712529 3.94300668 25.5387729 3.94031868 25.3402449L3.93940668 24.6068529C3.93940668 24.3188529 3.94540668 24.1748529 3.98140668 23.9048529 3.83640668 23.9198529 3.69557334 23.9265196 3.4686289 23.9283252L3.11140668 23.9288529C2.76340668 23.9288529 2.61340668 23.9228529 2.43940668 23.8928529L2.43940668 24.4628529C2.60140668 24.4328529 2.74540668 24.4268529 3.05740668 24.4268529L3.39940668 24.4268529 3.39940668 25.5668529C3.05740668 25.7888529 2.69140668 25.8908529 2.23540668 25.8908529 1.77340668 25.8908529 1.40740668 25.7468529 1.14940668 25.4588529.837406677 25.1168529.669406677 24.6008529.669406677 23.9708529.669406677 22.8128529 1.25140668 22.0868529 2.18140668 22.0868529 2.83540668 22.0868529 3.20140668 22.3328529 3.41140668 22.9088529L3.98740668 22.7408529C3.85540668 22.4108529 3.74140668 22.2368529 3.54340668 22.0448529 3.21940668 21.7388529 2.76940668 21.5828529 2.21140668 21.5828529.915406677 21.5828529.081406677 22.5128529.081406677 23.9708529.081406677 24.7508529.321406677 25.4228529.753406677 25.8488529 1.11940668 26.2028529 1.59940668 26.3768529 2.24740668 26.3768529zM6.78340668 26.4008529C8.07940668 26.4008529 8.90740668 25.4588529 8.90740668 23.9948529 8.90740668 22.5248529 8.08540668 21.5948529 6.78940668 21.5948529 5.49940668 21.5948529 4.66540668 22.5368529 4.66540668 23.9948529 4.66540668 25.4648529 5.49340668 26.4008529 6.78340668 26.4008529zM6.79540668 25.8968529C5.85940668 25.8968529 5.24740668 25.1408529 5.24740668 23.9948529 5.24740668 22.8428529 5.85340668 22.0988529 6.78940668 22.0988529 7.18540668 22.0988529 7.53940668 22.2368529 7.80340668 22.5008529 8.13940668 22.8368529 8.31940668 23.3528529 8.31940668 24.0008529 8.31940668 25.1588529 7.72540668 25.8968529 6.79540668 25.8968529zM11.5654067 26.4008529C12.1654067 26.4008529 12.6634067 26.2268529 12.9754067 25.9088529 13.2874067 25.5908529 13.4494067 25.1468529 13.4494067 24.6008529L13.4494067 22.3988529C13.4494067 22.0808529 13.4614067 21.8948529 13.4974067 21.6848529L12.8374067 21.6848529C12.8734067 21.8948529 12.8854067 22.0868529 12.8854067 22.4108529L12.8854067 24.5828529C12.8854067 25.4348529 12.4234067 25.9028529 11.5774067 25.9028529 10.7314067 25.9028529 10.2634067 25.4288529 10.2634067 24.5828529L10.2634067 22.4108529C10.2634067 22.0748529 10.2754067 21.8768529 10.3114067 21.6848529L9.65140668 21.6848529C9.68740668 21.8888529 9.69940668 22.0868529 9.69940668 22.4108529L9.69940668 24.6008529C9.69940668 25.7588529 10.3654067 26.4008529 11.5654067 26.4008529zM15.0454067 26.3108529C15.0094067 26.0948529 14.9974067 25.9208529 14.9974067 25.6028529L14.9974067 24.2468529 16.0354067 24.2468529C16.5094067 24.2468529 16.7434067 24.4808529 17.0854067 25.3028529 17.3314067 25.8968529 17.4094067 26.1188529 17.4334067 26.3108529L18.1714067 26.3108529C18.0874067 26.1668529 17.9794067 25.9448529 17.8954067 25.7408529 17.7034067 25.2968529 17.5594067 24.9848529 17.4274067 24.7268529 17.2114067 24.3068529 17.0614067 24.1448529 16.8214067 24.0668529 17.1454067 23.9888529 17.2954067 23.9168529 17.4694067 23.7548529 17.6974067 23.5388529 17.8054067 23.2568529 17.8054067 22.8728529 17.8054067 22.1048529 17.3194067 21.6848529 16.4314067 21.6848529L15.0814067 21.6848529C14.7874067 21.6848529 14.6014067 21.6788529 14.3914067 21.6668529 14.4274067 21.9188529 14.4394067 22.1048529 14.4394067 22.3808529L14.4394067 25.6028529C14.4394067 25.9208529 14.4274067 26.0828529 14.3914067 26.3108529L15.0454067 26.3108529zM16.3594067 23.7548529L14.9974067 23.7548529 14.9974067 22.1768529 16.3894067 22.1768529C16.9354067 22.1768529 17.2234067 22.4348529 17.2234067 22.9268529 17.2234067 23.1728529 17.1514067 23.3648529 17.0074067 23.5088529 16.8454067 23.6648529 16.6114067 23.7548529 16.3594067 23.7548529zM19.4494067 26.3108529C19.4134067 26.1008529 19.4014067 25.8968529 19.4014067 25.5548529L19.4014067 23.4428529C19.4014067 23.2628529 19.3834067 22.7708529 19.3594067 22.3328529 19.5334067 22.8728529 19.5814067 22.9988529 19.7554067 23.3888529L20.7454067 25.6328529C20.8714067 25.9028529 20.9494067 26.1368529 20.9794067 26.3108529L21.4834067 26.3108529C21.5434067 26.0768529 21.5974067 25.9148529 21.7234067 25.6388529L22.7434067 23.3528529C22.9474067 22.8908529 23.0194067 22.7048529 23.1154067 22.3388529 23.0974067 22.6088529 23.0734067 23.1848529 23.0734067 23.4008529L23.0734067 25.5548529C23.0734067 25.8608529 23.0554067 26.1128529 23.0254067 26.3108529L23.6554067 26.3108529C23.6194067 26.0948529 23.6074067 25.9148529 23.6074067 25.5548529L23.6074067 22.4468529C23.6074067 22.1048529 23.6194067 21.9308529 23.6554067 21.6848529L22.8454067 21.6848529C22.8094067 21.8828529 22.7494067 22.0628529 22.6414067 22.3148529L21.2374067 25.5248529 19.8334067 22.3148529C19.7434067 22.1048529 19.6714067 21.8768529 19.6294067 21.6848529L18.8194067 21.6848529C18.8554067 21.9128529 18.8674067 22.1228529 18.8674067 22.4468529L18.8674067 25.5548529C18.8674067 25.8968529 18.8554067 26.0828529 18.8194067 26.3108529L19.4494067 26.3108529zM27.7414067 26.3468529L27.7414067 25.7648529C27.5134067 25.7948529 27.3454067 25.8068529 27.0454067 25.8068529L25.1734067 25.8068529 25.1734067 24.1328529 26.7154067 24.1328529C27.0454067 24.1328529 27.2074067 24.1448529 27.4234067 24.1748529L27.4234067 23.5928529C27.1894067 23.6228529 26.9974067 23.6348529 26.7154067 23.6348529L25.1734067 23.6348529 25.1734067 22.1888529 26.9854067 22.1888529C27.3034067 22.1888529 27.4834067 22.2008529 27.6874067 22.2308529L27.6874067 21.6428529C27.4894067 21.6728529 27.2674067 21.6848529 26.9854067 21.6848529L25.2454067 21.6848529C24.9514067 21.6848529 24.7654067 21.6788529 24.5614067 21.6668529 24.5974067 21.9428529 24.6094067 22.1048529 24.6094067 22.3808529L24.6094067 25.5908529C24.6094067 25.9088529 24.5974067 26.1008529 24.5614067 26.3228529 24.7834067 26.3108529 24.9274067 26.3108529 25.2454067 26.3108529L27.0454067 26.3108529C27.3754067 26.3108529 27.5374067 26.3168529 27.7414067 26.3468529zM30.3574067 26.3108529C30.3214067 26.0888529 30.3094067 25.9028529 30.3094067 25.6028529L30.3094067 22.1888529 31.1854067 22.1888529C31.5514067 22.1888529 31.7434067 22.2008529 31.9474067 22.2308529L31.9474067 21.6428529C31.7776924 21.6685672 31.6212026 21.681057 31.3381355 21.6841007L28.8394067 21.6848529C28.5094067 21.6848529 28.3534067 21.6728529 28.1194067 21.6428529L28.1194067 22.2308529C28.3174067 22.2008529 28.5274067 22.1888529 28.8454067 22.1888529L29.7454067 22.1888529 29.7454067 25.6028529C29.7454067 25.9028529 29.7274067 26.1308529 29.6974067 26.3108529L30.3574067 26.3108529zM36.4174067 26.3948529C37.0954067 26.3948529 37.6594067 26.1488529 37.9954067 25.7108529 38.1514067 25.5068529 38.2354067 25.3148529 38.3434067 24.9428529L37.7434067 24.8168529C37.6894067 25.0868529 37.6354067 25.2308529 37.5094067 25.4048529 37.2814067 25.7168529 36.8974067 25.8908529 36.4354067 25.8908529 35.5054067 25.8908529 34.9114067 25.1528529 34.9114067 23.9888529 34.9114067 22.8248529 35.4934067 22.0988529 36.4354067 22.0988529 36.8494067 22.0988529 37.1974067 22.2428529 37.4254067 22.5128529 37.5514067 22.6628529 37.6174067 22.7828529 37.7014067 23.0408529L38.2834067 22.8848529C38.1394067 22.5008529 38.0254067 22.3088529 37.7974067 22.0868529 37.4554067 21.7568529 36.9994067 21.5948529 36.4234067 21.5948529 35.8474067 21.5948529 35.3854067 21.7688529 35.0314067 22.1108529 34.5754067 22.5548529 34.3234067 23.2208529 34.3234067 24.0068529 34.3234067 24.7628529 34.5574067 25.4228529 34.9774067 25.8488529 35.3254067 26.2088529 35.8234067 26.3948529 36.4174067 26.3948529zM41.0374067 26.4008529C42.3334067 26.4008529 43.1614067 25.4588529 43.1614067 23.9948529 43.1614067 22.5248529 42.3394067 21.5948529 41.0434067 21.5948529 39.7534067 21.5948529 38.9194067 22.5368529 38.9194067 23.9948529 38.9194067 25.4648529 39.7474067 26.4008529 41.0374067 26.4008529zM41.0494067 25.8968529C40.1134067 25.8968529 39.5014067 25.1408529 39.5014067 23.9948529 39.5014067 22.8428529 40.1074067 22.0988529 41.0434067 22.0988529 41.4394067 22.0988529 41.7934067 22.2368529 42.0574067 22.5008529 42.3934067 22.8368529 42.5734067 23.3528529 42.5734067 24.0008529 42.5734067 25.1588529 41.9794067 25.8968529 41.0494067 25.8968529zM44.5714067 26.3108529C44.5354067 26.0888529 44.5234067 25.9088529 44.5234067 25.5608529L44.5234067 24.1688529 45.8974067 24.1688529C46.2274067 24.1688529 46.4134067 24.1808529 46.6174067 24.2108529L46.6174067 23.6228529C46.3954067 23.6528529 46.2154067 23.6648529 45.8974067 23.6648529L44.5234067 23.6648529 44.5234067 22.1948529 46.2214067 22.1948529C46.5514067 22.1948529 46.7374067 22.2068529 46.9414067 22.2368529L46.9414067 21.6428529C46.7134067 21.6728529 46.5274067 21.6848529 46.2154067 21.6848529L44.5954067 21.6848529C44.3014067 21.6848529 44.1154067 21.6788529 43.9114067 21.6668529 43.9474067 21.9068529 43.9594067 22.0988529 43.9594067 22.3748529L43.9594067 25.5668529C43.9594067 25.9088529 43.9474067 26.1068529 43.9114067 26.3108529L44.5714067 26.3108529zM48.2554067 26.3108529C48.2194067 26.0888529 48.2074067 25.9088529 48.2074067 25.5608529L48.2074067 24.1688529 49.5814067 24.1688529C49.9114067 24.1688529 50.0974067 24.1808529 50.3014067 24.2108529L50.3014067 23.6228529C50.0794067 23.6528529 49.8994067 23.6648529 49.5814067 23.6648529L48.2074067 23.6648529 48.2074067 22.1948529 49.9054067 22.1948529C50.2354067 22.1948529 50.4214067 22.2068529 50.6254067 22.2368529L50.6254067 21.6428529C50.3974067 21.6728529 50.2114067 21.6848529 49.8994067 21.6848529L48.2794067 21.6848529C47.9854067 21.6848529 47.7994067 21.6788529 47.5954067 21.6668529 47.6314067 21.9068529 47.6434067 22.0988529 47.6434067 22.3748529L47.6434067 25.5668529C47.6434067 25.9088529 47.6314067 26.1068529 47.5954067 26.3108529L48.2554067 26.3108529zM54.4594067 26.3468529L54.4594067 25.7648529C54.2314067 25.7948529 54.0634067 25.8068529 53.7634067 25.8068529L51.8914067 25.8068529 51.8914067 24.1328529 53.4334067 24.1328529C53.7634067 24.1328529 53.9254067 24.1448529 54.1414067 24.1748529L54.1414067 23.5928529C53.9074067 23.6228529 53.7154067 23.6348529 53.4334067 23.6348529L51.8914067 23.6348529 51.8914067 22.1888529 53.7034067 22.1888529C54.0214067 22.1888529 54.2014067 22.2008529 54.4054067 22.2308529L54.4054067 21.6428529C54.2074067 21.6728529 53.9854067 21.6848529 53.7034067 21.6848529L51.9634067 21.6848529C51.6694067 21.6848529 51.4834067 21.6788529 51.2794067 21.6668529 51.3154067 21.9428529 51.3274067 22.1048529 51.3274067 22.3808529L51.3274067 25.5908529C51.3274067 25.9088529 51.3154067 26.1008529 51.2794067 26.3228529 51.5014067 26.3108529 51.6454067 26.3108529 51.9634067 26.3108529L53.7634067 26.3108529C54.0934067 26.3108529 54.2554067 26.3168529 54.4594067 26.3468529zM58.3894067 26.3468529L58.3894067 25.7648529C58.1614067 25.7948529 57.9934067 25.8068529 57.6934067 25.8068529L55.8214067 25.8068529 55.8214067 24.1328529 57.3634067 24.1328529C57.6934067 24.1328529 57.8554067 24.1448529 58.0714067 24.1748529L58.0714067 23.5928529C57.8374067 23.6228529 57.6454067 23.6348529 57.3634067 23.6348529L55.8214067 23.6348529 55.8214067 22.1888529 57.6334067 22.1888529C57.9514067 22.1888529 58.1314067 22.2008529 58.3354067 22.2308529L58.3354067 21.6428529C58.1374067 21.6728529 57.9154067 21.6848529 57.6334067 21.6848529L55.8934067 21.6848529C55.5994067 21.6848529 55.4134067 21.6788529 55.2094067 21.6668529 55.2454067 21.9428529 55.2574067 22.1048529 55.2574067 22.3808529L55.2574067 25.5908529C55.2574067 25.9088529 55.2454067 26.1008529 55.2094067 26.3228529 55.4314067 26.3108529 55.5754067 26.3108529 55.8934067 26.3108529L57.6934067 26.3108529C58.0234067 26.3108529 58.1854067 26.3168529 58.3894067 26.3468529z"/>
  </g>
</svg>
