<svg xmlns="http://www.w3.org/2000/svg" width="119" height="28" viewBox="0 0 119 28">
  <path d="M34.399386 7.64167576L37.399386 7.64167576 37.399386 19.7716758 34.399386 19.7716758 34.399386 7.64167576zM38.589386 15.1916758C38.589386 12.1916758 40.429386 10.4016758 43.269386 10.4016758 46.109386 10.4016758 47.949386 12.1916758 47.949386 15.1916758 47.949386 18.1916758 46.149386 19.9916758 43.269386 19.9916758 40.389386 19.9916758 38.589386 18.2416758 38.589386 15.1916758zM44.939386 15.1916758C44.939386 13.5416758 44.289386 12.5716758 43.269386 12.5716758 42.249386 12.5716758 41.609386 13.5716758 41.609386 15.1916758 41.609386 16.8116758 42.239386 17.7916758 43.269386 17.7916758 44.299386 17.7916758 44.939386 16.8716758 44.939386 15.2016758L44.939386 15.1916758zM49.079386 20.3616758L51.959386 20.3616758C52.2408421 20.9870059 52.8997516 21.3530667 53.579386 21.2616758 54.719386 21.2616758 55.319386 20.6416758 55.319386 19.7416758L55.319386 18.0616758 55.259386 18.0616758C54.7703435 19.115144 53.689123 19.7646684 52.529386 19.7016758 50.339386 19.7016758 48.889386 18.0316758 48.889386 15.1616758 48.889386 12.2916758 50.269386 10.4816758 52.569386 10.4816758 53.7665624 10.4347459 54.8669305 11.1364299 55.329386 12.2416758L55.329386 12.2416758 55.329386 10.5716758 58.329386 10.5716758 58.329386 19.6716758C58.329386 21.8616758 56.399386 23.2216758 53.549386 23.2216758 50.899386 23.2216758 49.249386 22.0316758 49.079386 20.3716758L49.079386 20.3616758zM55.329386 15.1816758C55.329386 13.7216758 54.659386 12.8016758 53.599386 12.8016758 52.539386 12.8016758 51.889386 13.7116758 51.889386 15.1816758 51.889386 16.6516758 52.529386 17.4816758 53.599386 17.4816758 54.669386 17.4816758 55.329386 16.6716758 55.329386 15.1916758L55.329386 15.1816758zM59.459386 15.1816758C59.459386 12.1816758 61.299386 10.3916758 64.139386 10.3916758 66.979386 10.3916758 68.829386 12.1816758 68.829386 15.1816758 68.829386 18.1816758 67.029386 19.9816758 64.139386 19.9816758 61.249386 19.9816758 59.459386 18.2416758 59.459386 15.1916758L59.459386 15.1816758zM65.809386 15.1816758C65.809386 13.5316758 65.159386 12.5616758 64.139386 12.5616758 63.119386 12.5616758 62.529386 13.5716758 62.529386 15.2016758 62.529386 16.8316758 63.159386 17.8016758 64.179386 17.8016758 65.199386 17.8016758 65.809386 16.8716758 65.809386 15.2016758L65.809386 15.1816758zM69.969386 8.39167576C69.953309 7.77222136 70.3124605 7.20423784 70.8789866 6.95317941 71.4455128 6.70212097 72.10753 6.81756931 72.5556362 7.2455682 73.0037424 7.67356709 73.1494409 8.32959075 72.9246376 8.90703833 72.6998343 9.48448592 72.1489258 9.86931692 71.529386 9.88167576 71.1234102 9.90956509 70.7242157 9.76675549 70.4280546 9.48768059 70.1318934 9.20860569 69.965642 8.81859122 69.969386 8.41167576L69.969386 8.39167576zM69.969386 10.5916758L72.969386 10.5916758 72.969386 19.7716758 69.969386 19.7716758 69.969386 10.5916758zM83.859386 15.1816758C83.859386 18.1816758 82.529386 19.8916758 80.249386 19.8916758 79.0518317 19.968548 77.9336423 19.2896474 77.449386 18.1916758L77.389386 18.1916758 77.389386 22.7116758 74.389386 22.7116758 74.389386 10.5716758 77.389386 10.5716758 77.389386 12.2116758 77.449386 12.2116758C77.9111919 11.0954008 79.0225587 10.387804 80.229386 10.4416758 82.529386 10.4816758 83.899386 12.2016758 83.899386 15.2016758L83.859386 15.1816758zM80.859386 15.1816758C80.859386 13.7216758 80.189386 12.7916758 79.139386 12.7916758 78.089386 12.7916758 77.419386 13.7316758 77.409386 15.1816758 77.399386 16.6316758 78.089386 17.5616758 79.139386 17.5616758 80.189386 17.5616758 80.859386 16.6516758 80.859386 15.2016758L80.859386 15.1816758zM89.009386 10.3816758C91.499386 10.3816758 93.009386 11.5616758 93.079386 13.4516758L90.349386 13.4516758C90.349386 12.8016758 89.809386 12.3916758 88.979386 12.3916758 88.149386 12.3916758 87.779386 12.7116758 87.779386 13.1816758 87.779386 13.6516758 88.109386 13.8016758 88.779386 13.9416758L90.699386 14.3316758C92.529386 14.7216758 93.309386 15.4616758 93.309386 16.8516758 93.309386 18.7516758 91.579386 19.9716758 89.029386 19.9716758 86.479386 19.9716758 84.809386 18.7516758 84.679386 16.8816758L87.569386 16.8816758C87.659386 17.5616758 88.199386 17.9616758 89.079386 17.9616758 89.959386 17.9616758 90.359386 17.6716758 90.359386 17.1916758 90.359386 16.7116758 90.079386 16.6116758 89.359386 16.4616758L87.629386 16.0916758C85.839386 15.7216758 84.899386 14.7716758 84.899386 13.3716758 84.919386 11.5716758 86.529386 10.4016758 89.009386 10.4016758L89.009386 10.3816758zM103.319386 19.7516758L100.429386 19.7516758 100.429386 18.0416758 100.369386 18.0416758C100.042096 19.2245784 98.9348491 20.0196313 97.709386 19.9516758 96.7871805 20.004097 95.8875287 19.6542073 95.2430665 18.9924827 94.5986042 18.3307581 94.2726119 17.4221738 94.349386 16.5016758L94.349386 10.5716758 97.349386 10.5716758 97.349386 15.8116758C97.349386 16.9016758 97.909386 17.4816758 98.839386 17.4816758 99.2805811 17.4825779 99.7006896 17.2929805 99.9918968 16.9615407 100.283104 16.630101 100.41706 16.189086 100.359386 15.7516758L100.359386 10.5716758 103.359386 10.5716758 103.319386 19.7516758zM104.769386 10.5716758L107.669386 10.5716758 107.669386 12.3416758 107.729386 12.3416758C108.05676 11.176565 109.129363 10.3793051 110.339386 10.4016758 111.580604 10.3022762 112.69017 11.172524 112.889386 12.4016758L112.949386 12.4016758C113.322589 11.1694126 114.483035 10.3464013 115.769386 10.4016758 116.594479 10.3739567 117.392515 10.6979986 117.964717 11.2930886 118.536919 11.8881787 118.829428 12.6983033 118.769386 13.5216758L118.769386 19.7716758 115.769386 19.7716758 115.769386 14.3216758C115.769386 13.3216758 115.319386 12.8616758 114.479386 12.8616758 114.100388 12.8584691 113.738576 13.0195658 113.48737 13.3033711 113.236164 13.5871765 113.120188 13.9658706 113.169386 14.3416758L113.169386 19.7716758 110.319386 19.7716758 110.319386 14.2816758C110.319386 13.3616758 109.869386 12.8616758 109.049386 12.8616758 108.666195 12.861794 108.301388 13.0259567 108.047165 13.3126735 107.792943 13.5993903 107.673632 13.981226 107.719386 14.3616758L107.719386 19.7716758 104.719386 19.7716758 104.769386 10.5716758zM26.009386 8.19167576C25.5004882 7.02803655 24.8269306 5.94360895 24.009386 4.97167576 20.7110874.93343762 15.3858438-.850207064 10.3206621.386755042 5.25548042 1.62371715 1.35179485 5.66114783.286102558 10.7651111-.779589737 15.8690744 1.18236911 21.1312341 5.32938604 24.2916758 6.30439065 25.0495673 7.38173756 25.6656751 8.52938604 26.1216758 10.1384209 26.7810563 11.8604856 27.120714 13.599386 27.1216758 21.0727471 27.1051438 27.123893 21.0450531 27.1293996 13.5716758 27.1320234 11.7201961 26.7506598 9.88828912 26.009386 8.19167576zM13.589386 2.76167576C15.1509376 2.76150802 16.6936376 3.10281332 18.109386 3.76167576L18.109386 3.76167576C17.7641507 3.91084329 17.4011784 4.01502978 17.029386 4.07167576 14.5167996 4.4353867 12.543097 6.40908937 12.179386 8.92167576 12.0191344 10.3360678 10.8870109 11.4431258 9.46938604 11.5716758 6.95679965 11.9353867 4.98309697 13.9090894 4.61938604 16.4216758 4.55942753 17.0740677 4.2810786 17.6871401 3.82938604 18.1616758L3.82938604 18.1616758C2.24533944 14.8146269 2.48649752 10.8893888 4.46835501 7.76142134 6.4502125 4.63345384 9.89642342 2.73891401 13.599386 2.74167275L13.589386 2.76167576zM5.31938604 20.5716758C5.43938604 20.4616758 5.55938604 20.3616758 5.67938604 20.2416758 6.56903926 19.3791322 7.14010094 18.240534 7.29938604 17.0116758 7.36396908 16.3209202 7.67238585 15.6757265 8.16938604 15.1916758 8.64763406 14.6938444 9.29135537 14.3879879 9.97938604 14.3316758 12.4919724 13.9679648 14.4656751 11.9942622 14.829386 9.48167576 14.8726476 8.75918861 15.1826923 8.07851578 15.699386 7.57167576 16.1894372 7.08352598 16.839298 6.78878036 17.529386 6.74167576 18.6533011 6.58704004 19.7015183 6.0873898 20.529386 5.31167576 21.4720333 6.09374604 22.2707196 7.03457146 22.889386 8.09167576 22.8513868 8.1430258 22.8077845 8.18998214 22.759386 8.23167576 22.2820531 8.73387135 21.6391621 9.04643711 20.949386 9.11167576 18.433662 9.46911573 16.456826 11.4459517 16.099386 13.9616758 15.9540852 15.3810158 14.8292574 16.5016621 13.409386 16.6416758 10.8898023 17.0025543 8.90579456 18.9743653 8.52938604 21.4916758 8.47556826 21.980408 8.30772941 22.4496717 8.03938604 22.8616758 7.01338492 22.252512 6.09447263 21.478869 5.31938604 20.5716758zM13.589386 24.4316822C12.5746571 24.4327804 11.5647989 24.2914003 10.589386 24.0116758 10.9230475 23.389679 11.1399599 22.7118278 11.229386 22.0116758 11.3738565 20.5957004 12.4934107 19.4761462 13.909386 19.3316758 16.4258605 18.9720271 18.4045549 16.9974041 18.769386 14.4816758 18.9138565 13.0657004 20.0334107 11.9461462 21.449386 11.8016758 22.3714097 11.6817436 23.2501979 11.338467 24.009386 10.8016758 24.8637121 14.0399844 24.1702877 17.4913831 22.1315177 20.1484366 20.0927476 22.80549 16.9384675 24.3686621 13.589386 24.3816758L13.589386 24.4316822z"/>
</svg>
