<svg xmlns="http://www.w3.org/2000/svg" width="159" height="36" viewBox="0 0 159 36">
  <g fill="none">
    <path fill="#000" d="M0,0 L0,35.453 L158.578,35.453 L158.578,0 L0,0 Z M156.578,33.453 L75.578,33.453 L75.578,2 L156.578,2 L156.578,33.453 Z"/>
    <polygon fill="#FFF" points="8.429 23.666 8.429 11.879 12.497 11.879 12.497 20.527 19.673 20.527 19.673 23.666"/>
    <path fill="#FFF" d="M35.711 17.69C35.711 21.443 33.369 23.846 27.798 23.846 22.738 23.846 19.87 21.774 19.87 17.69 19.87 14.071 22.604 11.609 27.798 11.609 33.073 11.609 35.711 13.876 35.711 17.69zM31.627 17.735C31.627 16.035 30.921 14.672 27.783 14.672 24.915 14.672 23.983 15.888 23.983 17.735 23.983 19.612 24.838 20.828 27.796 20.828 30.773 20.828 31.627 19.537 31.627 17.735L31.627 17.735zM48.295 23.666L48.19 22.524C46.8291834 23.4952375 45.1727891 23.9626341 43.505 23.846 40.998 23.846 38.91 23.095 37.739 21.579 36.9666876 20.472207 36.5766127 19.1436351 36.628 17.795 36.5841404 16.4746718 36.9876211 15.1782477 37.773 14.116 38.958 12.645 41.106 11.669 44.304 11.669 47.983 11.669 50.145 12.795 51.075 14.687 51.2746686 15.1325545 51.3918979 15.6106198 51.421 16.098L47.529 16.098C47.4309575 15.8018376 47.2484728 15.5407976 47.004 15.347 46.2287599 14.833034 45.3029665 14.5952446 44.376 14.672 43.276199 14.5386739 42.1719925 14.8830786 41.343 15.618 40.877646 16.254988 40.6591333 17.0391467 40.728 17.825 40.6740728 18.5747307 40.8749247 19.3207017 41.298 19.942 42.1348542 20.7215164 43.2688068 21.0995006 44.406 20.978 45.5223805 21.0687884 46.6306341 20.7244522 47.499 20.017 47.6855802 19.7837872 47.8141067 19.5095973 47.874 19.217L43.686 19.217 43.686 16.684 51.523 16.684 51.523 23.666 48.295 23.666zM68.505 17.69C68.505 21.443 66.162 23.846 60.592 23.846 55.532 23.846 52.664 21.774 52.664 17.69 52.664 14.071 55.398 11.609 60.592 11.609 65.863 11.609 68.505 13.876 68.505 17.69zM64.421 17.735C64.421 16.035 63.715 14.672 60.577 14.672 57.709 14.672 56.777 15.888 56.777 17.735 56.777 19.612 57.633 20.828 60.59 20.828 63.566 20.828 64.421 19.537 64.421 17.735L64.421 17.735z"/>
    <polygon fill="#000" points="82.43 23.621 82.43 11.834 85.33 11.834 85.33 23.621"/>
    <path fill="#000" d="M100.222 18.696C99.487 19.657 98.222 20.096 96.439 20.107 96.063 20.107 91.078 20.092 91.078 20.092L91.078 23.621 88.24 23.621 88.24 11.834 96.44 11.834C97.7692372 11.6934393 99.0955516 12.1246369 100.088 13.02 100.735632 13.8642171 101.050898 14.9167668 100.974 15.978 101.040153 16.9431991 100.77486 17.9020656 100.222 18.696L100.222 18.696zM97.895 14.853C97.595 14.403 96.948 14.153 95.853 14.153L91.063 14.153 91.063 17.741 95.822 17.741C96.993 17.741 97.61 17.501 97.895 17.035 98.0644719 16.7067007 98.137293 16.3370466 98.105 15.969 98.1302866 15.5852398 98.0580439 15.2013217 97.895 14.853L97.895 14.853zM109.337 23.801C103.991 23.801 102.355 21.801 102.355 19.822L105.388 19.822C105.388 20.798 106.724 21.534 109.472 21.534 112.204 21.534 112.925 21.053 112.925 20.272 112.925 19.401 112.385 19.131 109.847 18.846 109.347 18.801 107.986 18.636 107.475 18.561 103.875 18.155 102.489 17.089 102.489 15.182 102.489 13.17 104.517 11.654 108.916 11.654 113.691 11.654 115.523 13.531 115.523 15.483L112.523 15.483C112.523 14.492 111.397 13.921 108.739 13.921 106.006 13.921 105.421 14.296 105.421 15.032 105.421 15.798 106.021 16.038 108.921 16.383 109.582 16.474 111.053 16.639 111.458 16.683 114.522 16.998 115.903 18.109 115.903 20.076 115.898 22.419 113.796 23.801 109.337 23.801zM124.443 23.786C120.525 23.786 117.972 22.239 117.972 18.986L117.972 11.834 120.839 11.834 120.839 19.026C120.839 20.513 122.056 21.503 124.563 21.503 126.83 21.503 128.182 20.573 128.182 19.026L128.182 11.834 131.02 11.834 131.02 19.253C131.02 22.21 128.647 23.786 124.443 23.786z"/>
    <polygon fill="#000" points="146.56 23.621 146.56 15.753 142.881 23.621 140.089 23.621 136.515 15.753 136.515 23.621 133.815 23.621 133.815 11.834 137.473 11.834 141.527 20.813 145.671 11.834 149.271 11.834 149.271 23.621"/>
  </g>
</svg>
